<?xml version="1.0" encoding="UTF-8" standalone="no"?>
<svg
   xmlns:dc="http://purl.org/dc/elements/1.1/"
   xmlns:cc="http://creativecommons.org/ns#"
   xmlns:rdf="http://www.w3.org/1999/02/22-rdf-syntax-ns#"
   xmlns:svg="http://www.w3.org/2000/svg"
   xmlns="http://www.w3.org/2000/svg"
   id="svg1983"
   version="1.1"
   viewBox="0 0 270.93333 270.93334"
   height="1024"
   width="1024">
  <defs
     id="defs1977" />
  <metadata
     id="metadata1980">
    <rdf:RDF>
      <cc:Work
         rdf:about="">
        <dc:format>image/svg+xml</dc:format>
        <dc:type
           rdf:resource="http://purl.org/dc/dcmitype/StillImage" />
        <dc:title></dc:title>
      </cc:Work>
    </rdf:RDF>
  </metadata>
  <g
     id="layer1">
    <g
       transform="matrix(0.42330311,0,0,0.4230246,0.00967385,27.221766)"
       id="g2554">
      <path
         d="M 480.07,96 H 160 a 160,160 0 1 0 114.24,272 h 91.52 A 160,160 0 1 0 480.07,96 Z M 248,268 a 12,12 0 0 1 -12,12 h -52 v 52 a 12,12 0 0 1 -12,12 H 148 A 12,12 0 0 1 136,332 V 280 H 84 A 12,12 0 0 1 72,268 v -24 a 12,12 0 0 1 12,-12 h 52 v -52 a 12,12 0 0 1 12,-12 h 24 a 12,12 0 0 1 12,12 v 52 h 52 a 12,12 0 0 1 12,12 z m 216,76 a 40,40 0 1 1 40,-40 40,40 0 0 1 -40,40 z m 64,-96 a 40,40 0 1 1 40,-40 40,40 0 0 1 -40,40 z"
         id="path2" />
      <path
         style="fill:#00ccff;stroke-width:0.0610105;stroke-miterlimit:4;stroke-dasharray:none"
         d="M 151.30601,415.7508 C 118.52866,414.20917 85.929359,401.74953 59.485224,380.65635 52.777424,375.30587 40.72134,363.27164 35.45261,356.6673 21.055015,338.61996 9.936482,316.13338 4.5316755,294.13155 1.2309326,280.69492 0.12057807,271.21868 0.09945094,256.30505 0.07901932,241.88239 0.864243,234.30301 3.7338444,221.22402 8.7517456,198.35357 20.371604,174.219 35.457955,155.3327 c 5.319467,-6.65934 17.375349,-18.71426 24.027269,-24.02537 23.914878,-19.0944 52.696216,-30.9886 83.889416,-34.668198 9.90385,-1.168273 343.43492,-1.161303 353.25072,0.0074 31.54355,3.755628 59.76508,15.417058 83.88942,34.663978 6.6458,5.30217 18.70286,17.35669 24.02726,24.02221 14.38091,18.0032 25.51978,40.5269 30.92628,62.53575 3.32959,13.55399 4.40704,22.87674 4.40704,38.13155 0,10.95194 -0.26369,15.45429 -1.30429,22.26883 -2.75194,18.02193 -7.18502,32.25697 -15.00998,48.19828 -8.16101,16.62584 -17.38741,29.59175 -30.2073,42.4504 -25.48483,25.56188 -58.18038,41.56514 -93.98296,46.00118 -8.90776,1.10369 -27.51879,1.25875 -36.33457,0.30271 -34.1712,-3.70574 -68.33156,-19.35425 -92.15745,-42.21638 l -4.94578,-4.74573 H 320 274.06697 l -4.94578,4.74573 c -11.70113,11.22781 -27.52217,21.81854 -43.07989,28.83802 -23.34239,10.53184 -48.1919,15.15617 -74.73529,13.90776 z m 25.94455,-73.26844 c 1.58604,-0.8022 3.47816,-2.47192 4.55253,-4.01743 l 1.83847,-2.64469 0.17581,-28.01308 0.17581,-28.01307 27.27891,-0.0134 c 25.32345,-0.0125 27.45893,-0.0951 29.79016,-1.15381 2.7469,-1.24742 5.16891,-4.08082 6.25102,-7.31278 0.93816,-2.80207 0.93816,-27.82614 0,-30.62821 -1.08211,-3.23196 -3.50412,-6.06536 -6.25102,-7.31278 -2.33123,-1.05865 -4.46671,-1.14137 -29.79016,-1.15381 l -27.27891,-0.0134 -0.17581,-28.01307 -0.17581,-28.01308 -1.83847,-2.64469 c -1.07437,-1.54551 -2.96649,-3.21523 -4.55253,-4.01743 -2.58839,-1.30917 -3.37906,-1.37212 -17.07478,-1.35934 -12.67489,0.0118 -14.6472,0.14604 -16.80114,1.14327 -2.84049,1.31511 -5.44472,3.91506 -6.36728,6.35683 -0.42339,1.12057 -0.64892,11.24591 -0.64892,29.13251 v 27.415 h -27.415 c -17.847298,0 -28.014409,0.22598 -29.132511,0.64752 -2.329448,0.87824 -5.644465,4.10903 -6.671094,6.50162 -1.051699,2.45099 -1.21694,30.21293 -0.195978,32.92554 0.965558,2.5654 4.816698,6.22776 7.263591,6.90754 1.261166,0.35036 13.366903,0.60057 29.153852,0.60256 l 26.99714,0.003 v 27.415 c 0,17.8866 0.22553,28.01194 0.64892,29.13251 0.92256,2.44177 3.52679,5.04172 6.36728,6.35683 2.15394,0.99723 4.12625,1.13144 16.80114,1.14327 13.69572,0.0127 14.48639,-0.0502 17.07478,-1.35934 z m 294.88169,0.46554 c 14.82632,-3.14127 27.1308,-15.06263 30.55879,-29.6073 1.19566,-5.07305 1.20965,-13.96416 0.0293,-18.62328 -3.19274,-12.60254 -12.46436,-23.18086 -24.36414,-27.79792 -25.98681,-10.08278 -54.02826,9.21676 -54.02826,37.18497 0,15.35298 8.32183,28.63225 22.26883,35.53471 8.12516,4.02119 16.84208,5.15071 25.53549,3.30882 z m 61.20778,-95.54014 c 28.00067,-3.87747 42.89679,-34.38149 29.06243,-59.51353 -0.89962,-1.6343 -3.85015,-5.19452 -6.55673,-7.91159 -12.50173,-12.55028 -29.68138,-15.27847 -45.87689,-7.28543 -9.25307,4.56672 -15.91109,12.16059 -19.63351,22.39322 -1.47717,4.06062 -1.6265,5.26558 -1.61301,13.01634 0.0137,7.89031 0.14712,8.88932 1.74984,13.10443 5.46185,14.3645 17.68318,24.34227 32.08265,26.19301 5.67281,0.72911 5.54595,0.72907 10.78522,0.004 z"
         id="path835" />
    </g>
  </g>
</svg>
